<svg xmlns="http://www.w3.org/2000/svg" version="1.1" xmlns:xlink="http://www.w3.org/1999/xlink" xmlns:svgjs="http://svgjs.com/svgjs" width="1440" height="560" preserveAspectRatio="none" viewBox="0 0 1440 560"><g mask="url(&quot;#SvgjsMask1003&quot;)" fill="none"><rect width="1440" height="560" x="0" y="0" fill="rgba(1, 0, 42, 1)"></rect><path d="M312 293L311 -27" stroke-width="8" stroke="url(#SvgjsLinearGradient1004)" stroke-linecap="round" class="Up"></path><path d="M1359 143L1358 496" stroke-width="6" stroke="url(#SvgjsLinearGradient1004)" stroke-linecap="round" class="Up"></path><path d="M465 93L464 485" stroke-width="8" stroke="url(#SvgjsLinearGradient1005)" stroke-linecap="round" class="Down"></path><path d="M321 90L320 259" stroke-width="10" stroke="url(#SvgjsLinearGradient1005)" stroke-linecap="round" class="Down"></path><path d="M194 477L193 151" stroke-width="8" stroke="url(#SvgjsLinearGradient1004)" stroke-linecap="round" class="Up"></path><path d="M413 496L412 129" stroke-width="6" stroke="url(#SvgjsLinearGradient1004)" stroke-linecap="round" class="Up"></path><path d="M673 228L672 540" stroke-width="10" stroke="url(#SvgjsLinearGradient1005)" stroke-linecap="round" class="Down"></path><path d="M1194 549L1193 224" stroke-width="10" stroke="url(#SvgjsLinearGradient1004)" stroke-linecap="round" class="Up"></path><path d="M917 441L916 740" stroke-width="8" stroke="url(#SvgjsLinearGradient1005)" stroke-linecap="round" class="Down"></path><path d="M1396 188L1395 27" stroke-width="10" stroke="url(#SvgjsLinearGradient1004)" stroke-linecap="round" class="Up"></path><path d="M838 345L837 140" stroke-width="6" stroke="url(#SvgjsLinearGradient1004)" stroke-linecap="round" class="Up"></path><path d="M35 507L34 736" stroke-width="10" stroke="url(#SvgjsLinearGradient1004)" stroke-linecap="round" class="Up"></path><path d="M761 52L760 -301" stroke-width="6" stroke="url(#SvgjsLinearGradient1004)" stroke-linecap="round" class="Up"></path><path d="M547 208L546 23" stroke-width="8" stroke="url(#SvgjsLinearGradient1005)" stroke-linecap="round" class="Down"></path><path d="M947 282L946 -29" stroke-width="8" stroke="url(#SvgjsLinearGradient1004)" stroke-linecap="round" class="Up"></path><path d="M448 482L447 854" stroke-width="6" stroke="url(#SvgjsLinearGradient1005)" stroke-linecap="round" class="Down"></path><path d="M855 25L854 293" stroke-width="10" stroke="url(#SvgjsLinearGradient1005)" stroke-linecap="round" class="Down"></path><path d="M596 200L595 430" stroke-width="10" stroke="url(#SvgjsLinearGradient1004)" stroke-linecap="round" class="Up"></path><path d="M511 398L510 -8" stroke-width="8" stroke="url(#SvgjsLinearGradient1004)" stroke-linecap="round" class="Up"></path><path d="M1362 55L1361 292" stroke-width="10" stroke="url(#SvgjsLinearGradient1004)" stroke-linecap="round" class="Up"></path><path d="M1219 504L1218 100" stroke-width="6" stroke="url(#SvgjsLinearGradient1004)" stroke-linecap="round" class="Up"></path><path d="M983 186L982 529" stroke-width="6" stroke="url(#SvgjsLinearGradient1005)" stroke-linecap="round" class="Down"></path><path d="M646 501L645 883" stroke-width="10" stroke="url(#SvgjsLinearGradient1004)" stroke-linecap="round" class="Up"></path><path d="M1248 211L1247 -204" stroke-width="6" stroke="url(#SvgjsLinearGradient1004)" stroke-linecap="round" class="Up"></path><path d="M498 129L497 -278" stroke-width="8" stroke="url(#SvgjsLinearGradient1005)" stroke-linecap="round" class="Down"></path><path d="M990 382L989 172" stroke-width="8" stroke="url(#SvgjsLinearGradient1004)" stroke-linecap="round" class="Up"></path><path d="M934 141L933 -218" stroke-width="6" stroke="url(#SvgjsLinearGradient1005)" stroke-linecap="round" class="Down"></path><path d="M1046 13L1045 369" stroke-width="10" stroke="url(#SvgjsLinearGradient1004)" stroke-linecap="round" class="Up"></path><path d="M600 351L599 -47" stroke-width="6" stroke="url(#SvgjsLinearGradient1004)" stroke-linecap="round" class="Up"></path><path d="M738 348L737 88" stroke-width="8" stroke="url(#SvgjsLinearGradient1004)" stroke-linecap="round" class="Up"></path><path d="M937 186L936 -72" stroke-width="8" stroke="url(#SvgjsLinearGradient1005)" stroke-linecap="round" class="Down"></path><path d="M1248 369L1247 706" stroke-width="10" stroke="url(#SvgjsLinearGradient1005)" stroke-linecap="round" class="Down"></path><path d="M849 34L848 -309" stroke-width="6" stroke="url(#SvgjsLinearGradient1005)" stroke-linecap="round" class="Down"></path><path d="M1221 38L1220 -174" stroke-width="6" stroke="url(#SvgjsLinearGradient1004)" stroke-linecap="round" class="Up"></path><path d="M1378 408L1377 21" stroke-width="6" stroke="url(#SvgjsLinearGradient1005)" stroke-linecap="round" class="Down"></path><path d="M546 159L545 -18" stroke-width="10" stroke="url(#SvgjsLinearGradient1004)" stroke-linecap="round" class="Up"></path></g><defs><mask id="SvgjsMask1003"><rect width="1440" height="560" fill="#ffffff"></rect></mask><linearGradient x1="0%" y1="100%" x2="0%" y2="0%" id="SvgjsLinearGradient1004"><stop stop-color="rgba(28, 83, 142, 0)" offset="0"></stop><stop stop-color="#1c538e" offset="1"></stop></linearGradient><linearGradient x1="0%" y1="0%" x2="0%" y2="100%" id="SvgjsLinearGradient1005"><stop stop-color="rgba(28, 83, 142, 0)" offset="0"></stop><stop stop-color="#1c538e" offset="1"></stop></linearGradient></defs></svg>